<svg width="395" height="84" viewBox="0 0 395 84" fill="none" xmlns="http://www.w3.org/2000/svg">
<rect x="1" y="1" width="393" height="53" rx="25" stroke="#EF4034" stroke-width="2"/>
<path d="M93.2203 32.549V19.151H96.9613V32.549H93.2203ZM88.2033 27.619V24.081H102.007V27.619H88.2033ZM107.406 36V17.44L109.436 19.47H103.346V15.7H112.104V36H107.406ZM128.454 41.626C127.294 39.8667 126.395 37.8367 125.757 35.536C125.138 33.216 124.829 30.722 124.829 28.054C124.829 25.386 125.138 22.892 125.757 20.572C126.395 18.2327 127.294 16.2027 128.454 14.482H132.775C131.557 16.6667 130.668 18.8707 130.107 21.094C129.546 23.298 129.266 25.618 129.266 28.054C129.266 30.49 129.546 32.8197 130.107 35.043C130.668 37.247 131.557 39.4413 132.775 41.626H128.454ZM142.618 36.348C140.917 36.348 139.428 36.0967 138.152 35.594C136.876 35.072 135.88 34.347 135.165 33.419C134.45 32.4717 134.092 31.3697 134.092 30.113C134.092 28.8563 134.44 27.793 135.136 26.923C135.851 26.0337 136.847 25.3667 138.123 24.922C139.399 24.458 140.897 24.226 142.618 24.226C144.358 24.226 145.866 24.458 147.142 24.922C148.437 25.3667 149.433 26.0337 150.129 26.923C150.844 27.793 151.202 28.8563 151.202 30.113C151.202 31.3697 150.844 32.4717 150.129 33.419C149.414 34.347 148.408 35.072 147.113 35.594C145.837 36.0967 144.339 36.348 142.618 36.348ZM142.618 32.897C143.797 32.897 144.725 32.636 145.402 32.114C146.098 31.592 146.446 30.8767 146.446 29.968C146.446 29.0593 146.098 28.3537 145.402 27.851C144.725 27.329 143.797 27.068 142.618 27.068C141.458 27.068 140.54 27.329 139.863 27.851C139.186 28.3537 138.848 29.0593 138.848 29.968C138.848 30.8767 139.186 31.592 139.863 32.114C140.54 32.636 141.458 32.897 142.618 32.897ZM142.618 26.604C141.052 26.604 139.679 26.3913 138.5 25.966C137.34 25.5407 136.431 24.922 135.774 24.11C135.136 23.2787 134.817 22.2927 134.817 21.152C134.817 19.9533 135.146 18.9287 135.803 18.078C136.46 17.208 137.379 16.541 138.558 16.077C139.737 15.5937 141.091 15.352 142.618 15.352C144.184 15.352 145.547 15.5937 146.707 16.077C147.886 16.541 148.805 17.208 149.462 18.078C150.139 18.9287 150.477 19.9533 150.477 21.152C150.477 22.2927 150.148 23.2787 149.491 24.11C148.853 24.922 147.944 25.5407 146.765 25.966C145.586 26.3913 144.203 26.604 142.618 26.604ZM142.618 23.849C143.604 23.849 144.377 23.6267 144.938 23.182C145.518 22.7373 145.808 22.1283 145.808 21.355C145.808 20.543 145.508 19.9147 144.909 19.47C144.329 19.0253 143.565 18.803 142.618 18.803C141.69 18.803 140.936 19.0253 140.356 19.47C139.776 19.9147 139.486 20.543 139.486 21.355C139.486 22.1283 139.766 22.7373 140.327 23.182C140.888 23.6267 141.651 23.849 142.618 23.849ZM162.43 36.348C160.574 36.348 158.959 35.9613 157.587 35.188C156.233 34.4147 155.189 33.2837 154.455 31.795C153.72 30.3063 153.353 28.4697 153.353 26.285C153.353 23.9457 153.788 21.964 154.658 20.34C155.547 18.716 156.765 17.4787 158.312 16.628C159.878 15.7773 161.676 15.352 163.706 15.352C164.788 15.352 165.823 15.468 166.809 15.7C167.795 15.932 168.645 16.28 169.361 16.744L167.621 20.195C167.06 19.8083 166.461 19.5473 165.823 19.412C165.185 19.2573 164.518 19.18 163.822 19.18C162.062 19.18 160.67 19.7117 159.646 20.775C158.621 21.8383 158.109 23.414 158.109 25.502C158.109 25.85 158.109 26.2367 158.109 26.662C158.128 27.0873 158.186 27.5127 158.283 27.938L156.978 26.72C157.345 25.966 157.819 25.3377 158.399 24.835C158.979 24.313 159.665 23.9263 160.458 23.675C161.27 23.4043 162.159 23.269 163.126 23.269C164.44 23.269 165.62 23.53 166.664 24.052C167.708 24.574 168.539 25.3087 169.158 26.256C169.796 27.2033 170.115 28.315 170.115 29.591C170.115 30.9637 169.767 32.1623 169.071 33.187C168.394 34.1923 167.476 34.9753 166.316 35.536C165.175 36.0773 163.88 36.348 162.43 36.348ZM162.169 32.839C162.826 32.839 163.406 32.723 163.909 32.491C164.431 32.2397 164.837 31.882 165.127 31.418C165.417 30.954 165.562 30.4223 165.562 29.823C165.562 28.895 165.243 28.1603 164.605 27.619C163.986 27.0583 163.155 26.778 162.111 26.778C161.415 26.778 160.806 26.9133 160.284 27.184C159.762 27.4353 159.346 27.793 159.037 28.257C158.747 28.7017 158.602 29.2237 158.602 29.823C158.602 30.403 158.747 30.925 159.037 31.389C159.327 31.8337 159.733 32.1913 160.255 32.462C160.777 32.7133 161.415 32.839 162.169 32.839ZM180.895 36.348C179.039 36.348 177.424 35.9613 176.052 35.188C174.698 34.4147 173.654 33.2837 172.92 31.795C172.185 30.3063 171.818 28.4697 171.818 26.285C171.818 23.9457 172.253 21.964 173.123 20.34C174.012 18.716 175.23 17.4787 176.777 16.628C178.343 15.7773 180.141 15.352 182.171 15.352C183.253 15.352 184.288 15.468 185.274 15.7C186.26 15.932 187.11 16.28 187.826 16.744L186.086 20.195C185.525 19.8083 184.926 19.5473 184.288 19.412C183.65 19.2573 182.983 19.18 182.287 19.18C180.527 19.18 179.135 19.7117 178.111 20.775C177.086 21.8383 176.574 23.414 176.574 25.502C176.574 25.85 176.574 26.2367 176.574 26.662C176.593 27.0873 176.651 27.5127 176.748 27.938L175.443 26.72C175.81 25.966 176.284 25.3377 176.864 24.835C177.444 24.313 178.13 23.9263 178.923 23.675C179.735 23.4043 180.624 23.269 181.591 23.269C182.905 23.269 184.085 23.53 185.129 24.052C186.173 24.574 187.004 25.3087 187.623 26.256C188.261 27.2033 188.58 28.315 188.58 29.591C188.58 30.9637 188.232 32.1623 187.536 33.187C186.859 34.1923 185.941 34.9753 184.781 35.536C183.64 36.0773 182.345 36.348 180.895 36.348ZM180.634 32.839C181.291 32.839 181.871 32.723 182.374 32.491C182.896 32.2397 183.302 31.882 183.592 31.418C183.882 30.954 184.027 30.4223 184.027 29.823C184.027 28.895 183.708 28.1603 183.07 27.619C182.451 27.0583 181.62 26.778 180.576 26.778C179.88 26.778 179.271 26.9133 178.749 27.184C178.227 27.4353 177.811 27.793 177.502 28.257C177.212 28.7017 177.067 29.2237 177.067 29.823C177.067 30.403 177.212 30.925 177.502 31.389C177.792 31.8337 178.198 32.1913 178.72 32.462C179.242 32.7133 179.88 32.839 180.634 32.839ZM193.762 41.626H189.441C190.698 39.4413 191.597 37.247 192.138 35.043C192.699 32.8197 192.979 30.49 192.979 28.054C192.979 25.618 192.699 23.298 192.138 21.094C191.597 18.8707 190.698 16.6667 189.441 14.482H193.762C194.961 16.2027 195.87 18.2327 196.488 20.572C197.107 22.892 197.416 25.386 197.416 28.054C197.416 30.722 197.107 33.216 196.488 35.536C195.87 37.8367 194.961 39.8667 193.762 41.626ZM208.715 36V32.955L216.545 25.56C217.163 24.9993 217.618 24.4967 217.908 24.052C218.198 23.6073 218.391 23.2013 218.488 22.834C218.604 22.4667 218.662 22.1283 218.662 21.819C218.662 21.007 218.381 20.3883 217.821 19.963C217.279 19.5183 216.477 19.296 215.414 19.296C214.563 19.296 213.77 19.4603 213.036 19.789C212.32 20.1177 211.711 20.63 211.209 21.326L207.787 19.122C208.56 17.962 209.643 17.0437 211.035 16.367C212.427 15.6903 214.031 15.352 215.849 15.352C217.357 15.352 218.671 15.6033 219.793 16.106C220.933 16.5893 221.813 17.2757 222.432 18.165C223.07 19.0543 223.389 20.1177 223.389 21.355C223.389 22.0123 223.302 22.6697 223.128 23.327C222.973 23.965 222.644 24.6417 222.142 25.357C221.658 26.0723 220.943 26.8747 219.996 27.764L213.5 33.883L212.601 32.172H224.056V36H208.715ZM233.128 15.352C235.004 15.352 236.618 15.7387 237.971 16.512C239.325 17.2853 240.369 18.4163 241.103 19.905C241.838 21.3743 242.205 23.211 242.205 25.415C242.205 27.7543 241.761 29.736 240.871 31.36C240.001 32.984 238.793 34.2213 237.246 35.072C235.7 35.9227 233.902 36.348 231.852 36.348C230.789 36.348 229.764 36.232 228.778 36C227.792 35.768 226.942 35.42 226.226 34.956L227.966 31.505C228.527 31.8917 229.126 32.1623 229.764 32.317C230.402 32.4523 231.069 32.52 231.765 32.52C233.505 32.52 234.888 31.9883 235.912 30.925C236.956 29.8617 237.478 28.286 237.478 26.198C237.478 25.85 237.469 25.4633 237.449 25.038C237.43 24.6127 237.382 24.1873 237.304 23.762L238.58 24.98C238.252 25.734 237.788 26.372 237.188 26.894C236.589 27.3967 235.893 27.7833 235.1 28.054C234.308 28.3053 233.418 28.431 232.432 28.431C231.137 28.431 229.958 28.17 228.894 27.648C227.85 27.126 227.009 26.3913 226.371 25.444C225.753 24.4967 225.443 23.385 225.443 22.109C225.443 20.717 225.782 19.5183 226.458 18.513C227.154 17.5077 228.082 16.7343 229.242 16.193C230.422 15.6323 231.717 15.352 233.128 15.352ZM233.418 18.861C232.742 18.861 232.152 18.9867 231.649 19.238C231.147 19.47 230.75 19.818 230.46 20.282C230.17 20.7267 230.025 21.2583 230.025 21.877C230.025 22.805 230.335 23.5493 230.953 24.11C231.591 24.6513 232.432 24.922 233.476 24.922C234.153 24.922 234.752 24.7963 235.274 24.545C235.816 24.2743 236.231 23.907 236.521 23.443C236.811 22.979 236.956 22.457 236.956 21.877C236.956 21.297 236.811 20.7847 236.521 20.34C236.251 19.876 235.854 19.5183 235.332 19.267C234.81 18.9963 234.172 18.861 233.418 18.861ZM253.536 36.348C251.68 36.348 250.066 35.9613 248.693 35.188C247.34 34.4147 246.296 33.2837 245.561 31.795C244.826 30.3063 244.459 28.4697 244.459 26.285C244.459 23.9457 244.894 21.964 245.764 20.34C246.653 18.716 247.871 17.4787 249.418 16.628C250.984 15.7773 252.782 15.352 254.812 15.352C255.895 15.352 256.929 15.468 257.915 15.7C258.901 15.932 259.752 16.28 260.467 16.744L258.727 20.195C258.166 19.8083 257.567 19.5473 256.929 19.412C256.291 19.2573 255.624 19.18 254.928 19.18C253.169 19.18 251.777 19.7117 250.752 20.775C249.727 21.8383 249.215 23.414 249.215 25.502C249.215 25.85 249.215 26.2367 249.215 26.662C249.234 27.0873 249.292 27.5127 249.389 27.938L248.084 26.72C248.451 25.966 248.925 25.3377 249.505 24.835C250.085 24.313 250.771 23.9263 251.564 23.675C252.376 23.4043 253.265 23.269 254.232 23.269C255.547 23.269 256.726 23.53 257.77 24.052C258.814 24.574 259.645 25.3087 260.264 26.256C260.902 27.2033 261.221 28.315 261.221 29.591C261.221 30.9637 260.873 32.1623 260.177 33.187C259.5 34.1923 258.582 34.9753 257.422 35.536C256.281 36.0773 254.986 36.348 253.536 36.348ZM253.275 32.839C253.932 32.839 254.512 32.723 255.015 32.491C255.537 32.2397 255.943 31.882 256.233 31.418C256.523 30.954 256.668 30.4223 256.668 29.823C256.668 28.895 256.349 28.1603 255.711 27.619C255.092 27.0583 254.261 26.778 253.217 26.778C252.521 26.778 251.912 26.9133 251.39 27.184C250.868 27.4353 250.452 27.793 250.143 28.257C249.853 28.7017 249.708 29.2237 249.708 29.823C249.708 30.403 249.853 30.925 250.143 31.389C250.433 31.8337 250.839 32.1913 251.361 32.462C251.883 32.7133 252.521 32.839 253.275 32.839ZM263.443 29.649V26.024H271.65V29.649H263.443ZM283.037 36.348C281.374 36.348 279.886 35.942 278.571 35.13C277.256 34.2987 276.222 33.1 275.468 31.534C274.714 29.968 274.337 28.0733 274.337 25.85C274.337 23.6267 274.714 21.732 275.468 20.166C276.222 18.6 277.256 17.411 278.571 16.599C279.886 15.7677 281.374 15.352 283.037 15.352C284.719 15.352 286.208 15.7677 287.503 16.599C288.818 17.411 289.852 18.6 290.606 20.166C291.36 21.732 291.737 23.6267 291.737 25.85C291.737 28.0733 291.36 29.968 290.606 31.534C289.852 33.1 288.818 34.2987 287.503 35.13C286.208 35.942 284.719 36.348 283.037 36.348ZM283.037 32.375C283.83 32.375 284.516 32.1527 285.096 31.708C285.695 31.2633 286.159 30.5577 286.488 29.591C286.836 28.6243 287.01 27.3773 287.01 25.85C287.01 24.3227 286.836 23.0757 286.488 22.109C286.159 21.1423 285.695 20.4367 285.096 19.992C284.516 19.5473 283.83 19.325 283.037 19.325C282.264 19.325 281.577 19.5473 280.978 19.992C280.398 20.4367 279.934 21.1423 279.586 22.109C279.257 23.0757 279.093 24.3227 279.093 25.85C279.093 27.3773 279.257 28.6243 279.586 29.591C279.934 30.5577 280.398 31.2633 280.978 31.708C281.577 32.1527 282.264 32.375 283.037 32.375ZM293.788 31.737V28.576L303.358 15.7H308.288L298.921 28.576L296.63 27.909H312.609V31.737H293.788ZM304.721 36V31.737L304.866 27.909V24.11H309.303V36H304.721ZM320.916 36.348C319.504 36.348 318.103 36.1643 316.711 35.797C315.338 35.4103 314.159 34.869 313.173 34.173L315.029 30.577C315.802 31.1377 316.691 31.5823 317.697 31.911C318.721 32.2397 319.756 32.404 320.8 32.404C321.979 32.404 322.907 32.172 323.584 31.708C324.26 31.244 324.599 30.5963 324.599 29.765C324.599 29.243 324.463 28.779 324.193 28.373C323.922 27.967 323.439 27.6577 322.743 27.445C322.066 27.2323 321.109 27.126 319.872 27.126H314.681L315.725 15.7H328.108V19.47H317.407L319.843 17.324L319.118 25.473L316.682 23.327H320.974C322.984 23.327 324.599 23.6073 325.817 24.168C327.054 24.7093 327.953 25.4537 328.514 26.401C329.074 27.3483 329.355 28.4213 329.355 29.62C329.355 30.8187 329.055 31.9303 328.456 32.955C327.856 33.9603 326.928 34.782 325.672 35.42C324.434 36.0387 322.849 36.348 320.916 36.348ZM340.338 36.348C338.482 36.348 336.868 35.9613 335.495 35.188C334.142 34.4147 333.098 33.2837 332.363 31.795C331.628 30.3063 331.261 28.4697 331.261 26.285C331.261 23.9457 331.696 21.964 332.566 20.34C333.455 18.716 334.673 17.4787 336.22 16.628C337.786 15.7773 339.584 15.352 341.614 15.352C342.697 15.352 343.731 15.468 344.717 15.7C345.703 15.932 346.554 16.28 347.269 16.744L345.529 20.195C344.968 19.8083 344.369 19.5473 343.731 19.412C343.093 19.2573 342.426 19.18 341.73 19.18C339.971 19.18 338.579 19.7117 337.554 20.775C336.529 21.8383 336.017 23.414 336.017 25.502C336.017 25.85 336.017 26.2367 336.017 26.662C336.036 27.0873 336.094 27.5127 336.191 27.938L334.886 26.72C335.253 25.966 335.727 25.3377 336.307 24.835C336.887 24.313 337.573 23.9263 338.366 23.675C339.178 23.4043 340.067 23.269 341.034 23.269C342.349 23.269 343.528 23.53 344.572 24.052C345.616 24.574 346.447 25.3087 347.066 26.256C347.704 27.2033 348.023 28.315 348.023 29.591C348.023 30.9637 347.675 32.1623 346.979 33.187C346.302 34.1923 345.384 34.9753 344.224 35.536C343.083 36.0773 341.788 36.348 340.338 36.348ZM340.077 32.839C340.734 32.839 341.314 32.723 341.817 32.491C342.339 32.2397 342.745 31.882 343.035 31.418C343.325 30.954 343.47 30.4223 343.47 29.823C343.47 28.895 343.151 28.1603 342.513 27.619C341.894 27.0583 341.063 26.778 340.019 26.778C339.323 26.778 338.714 26.9133 338.192 27.184C337.67 27.4353 337.254 27.793 336.945 28.257C336.655 28.7017 336.51 29.2237 336.51 29.823C336.51 30.403 336.655 30.925 336.945 31.389C337.235 31.8337 337.641 32.1913 338.163 32.462C338.685 32.7133 339.323 32.839 340.077 32.839Z" fill="#EF4034"/>
<path d="M50 46V41.4L52.6 41.9C55.5 42.5 58.2 40.4 58.4 37.5L59 31L61.9 29.8C62.9 29.4 63.3 28.2 62.7 27.2L59 21C58.4 13.4 54.1 6 43 6C31.6 6 26 14.4 26 23C26 26.7 27.3 29.9 29.3 32.6C31.1 35.1 32 38.1 32 41.1V45.9H50V46Z" fill="#FFB74D"/>
<path d="M50 46V41.4L43 40V46H50Z" fill="#FF9800"/>
<path d="M54.5 26C55.3284 26 56 25.3284 56 24.5C56 23.6716 55.3284 23 54.5 23C53.6716 23 53 23.6716 53 24.5C53 25.3284 53.6716 26 54.5 26Z" fill="#784719"/>
<path d="M42.4 6C33.3 6 26 13.3 26 22.4C26 33.5 32 33.8 32 41L34.6 40.1C36.7 39.4 38.5 37.8 39.3 35.7L42.1 28.9L48 26V20C48 20 55 16.2 55 9.7C52 7.2 46.7 6 42.4 6Z" fill="#EF4034"/>
<path d="M42 5.1C41.4 5.1 41 5.5 41 6.1V20C41 20.6 41.4 21 42 21C42.6 21 43 20.6 43 20V6.1C43 5.5 42.6 5.1 42 5.1ZM57.9 34.9C50 34.9 47.6 30 47.5 29.8C47.3 29.3 46.7 29.1 46.2 29.3C45.7 29.5 45.5 30.1 45.7 30.6C45.8 30.9 48.7 36.9 57.9 36.9C58.5 36.9 58.9 36.5 58.9 35.9C58.9 35.3 58.4 34.9 57.9 34.9V34.9Z" fill="#003C79"/>
<path d="M58 38C59.1046 38 60 37.1046 60 36C60 34.8954 59.1046 34 58 34C56.8954 34 56 34.8954 56 36C56 37.1046 56.8954 38 58 38Z" fill="#37474F"/>
<path d="M42 33C45.866 33 49 29.866 49 26C49 22.134 45.866 19 42 19C38.134 19 35 22.134 35 26C35 29.866 38.134 33 42 33Z" fill="#003C79"/>
<path d="M42 30C44.2091 30 46 28.2091 46 26C46 23.7909 44.2091 22 42 22C39.7909 22 38 23.7909 38 26C38 28.2091 39.7909 30 42 30Z" fill="#EF4034"/>
<path d="M57.0911 79V77.11L61.9511 72.52C62.3351 72.172 62.6171 71.86 62.7971 71.584C62.9771 71.308 63.0971 71.056 63.1571 70.828C63.2291 70.6 63.2651 70.39 63.2651 70.198C63.2651 69.694 63.0911 69.31 62.7431 69.046C62.4071 68.77 61.9091 68.632 61.2491 68.632C60.7211 68.632 60.2291 68.734 59.7731 68.938C59.3291 69.142 58.9511 69.46 58.6391 69.892L56.5151 68.524C56.9951 67.804 57.6671 67.234 58.5311 66.814C59.3951 66.394 60.3911 66.184 61.5191 66.184C62.4551 66.184 63.2711 66.34 63.9671 66.652C64.6751 66.952 65.2211 67.378 65.6051 67.93C66.0011 68.482 66.1991 69.142 66.1991 69.91C66.1991 70.318 66.1451 70.726 66.0371 71.134C65.9411 71.53 65.7371 71.95 65.4251 72.394C65.1251 72.838 64.6811 73.336 64.0931 73.888L60.0611 77.686L59.5031 76.624H66.6131V79H57.0911ZM67.4789 76.354V74.392L73.4189 66.4H76.4789L70.6649 74.392L69.2429 73.978H79.1609V76.354H67.4789ZM74.2649 79V76.354L74.3549 73.978V71.62H77.1089V79H74.2649ZM79.1589 80.8L85.0989 63.844H87.6009L81.6609 80.8H79.1589ZM89.6252 79L94.7012 67.516L95.4572 68.776H88.6712L89.9672 67.408V70.828H87.3752V66.4H97.4732V68.29L92.7932 79H89.6252ZM104.661 79V66.4H110.115C111.243 66.4 112.215 66.586 113.031 66.958C113.847 67.318 114.477 67.84 114.921 68.524C115.365 69.208 115.587 70.024 115.587 70.972C115.587 71.908 115.365 72.718 114.921 73.402C114.477 74.086 113.847 74.614 113.031 74.986C112.215 75.346 111.243 75.526 110.115 75.526H106.281L107.577 74.212V79H104.661ZM107.577 74.536L106.281 73.15H109.953C110.853 73.15 111.525 72.958 111.969 72.574C112.413 72.19 112.635 71.656 112.635 70.972C112.635 70.276 112.413 69.736 111.969 69.352C111.525 68.968 110.853 68.776 109.953 68.776H106.281L107.577 67.39V74.536ZM123.533 69.172C124.301 69.172 124.985 69.328 125.585 69.64C126.197 69.94 126.677 70.408 127.025 71.044C127.373 71.668 127.547 72.472 127.547 73.456V79H124.739V73.888C124.739 73.108 124.565 72.532 124.217 72.16C123.881 71.788 123.401 71.602 122.777 71.602C122.333 71.602 121.931 71.698 121.571 71.89C121.223 72.07 120.947 72.352 120.743 72.736C120.551 73.12 120.455 73.612 120.455 74.212V79H117.647V65.644H120.455V71.998L119.825 71.188C120.173 70.54 120.671 70.042 121.319 69.694C121.967 69.346 122.705 69.172 123.533 69.172ZM134.77 79.144C133.738 79.144 132.82 78.928 132.016 78.496C131.224 78.064 130.594 77.476 130.126 76.732C129.67 75.976 129.442 75.118 129.442 74.158C129.442 73.186 129.67 72.328 130.126 71.584C130.594 70.828 131.224 70.24 132.016 69.82C132.82 69.388 133.738 69.172 134.77 69.172C135.79 69.172 136.702 69.388 137.506 69.82C138.31 70.24 138.94 70.822 139.396 71.566C139.852 72.31 140.08 73.174 140.08 74.158C140.08 75.118 139.852 75.976 139.396 76.732C138.94 77.476 138.31 78.064 137.506 78.496C136.702 78.928 135.79 79.144 134.77 79.144ZM134.77 76.84C135.238 76.84 135.658 76.732 136.03 76.516C136.402 76.3 136.696 75.994 136.912 75.598C137.128 75.19 137.236 74.71 137.236 74.158C137.236 73.594 137.128 73.114 136.912 72.718C136.696 72.322 136.402 72.016 136.03 71.8C135.658 71.584 135.238 71.476 134.77 71.476C134.302 71.476 133.882 71.584 133.51 71.8C133.138 72.016 132.838 72.322 132.61 72.718C132.394 73.114 132.286 73.594 132.286 74.158C132.286 74.71 132.394 75.19 132.61 75.598C132.838 75.994 133.138 76.3 133.51 76.516C133.882 76.732 134.302 76.84 134.77 76.84ZM147.843 69.172C148.611 69.172 149.295 69.328 149.895 69.64C150.507 69.94 150.987 70.408 151.335 71.044C151.683 71.668 151.857 72.472 151.857 73.456V79H149.049V73.888C149.049 73.108 148.875 72.532 148.527 72.16C148.191 71.788 147.711 71.602 147.087 71.602C146.643 71.602 146.241 71.698 145.881 71.89C145.533 72.07 145.257 72.352 145.053 72.736C144.861 73.12 144.765 73.612 144.765 74.212V79H141.957V69.316H144.639V71.998L144.135 71.188C144.483 70.54 144.981 70.042 145.629 69.694C146.277 69.346 147.015 69.172 147.843 69.172ZM159.279 79.144C158.175 79.144 157.203 78.928 156.363 78.496C155.535 78.064 154.893 77.476 154.437 76.732C153.981 75.976 153.753 75.118 153.753 74.158C153.753 73.186 153.975 72.328 154.419 71.584C154.875 70.828 155.493 70.24 156.273 69.82C157.053 69.388 157.935 69.172 158.919 69.172C159.867 69.172 160.719 69.376 161.475 69.784C162.243 70.18 162.849 70.756 163.293 71.512C163.737 72.256 163.959 73.15 163.959 74.194C163.959 74.302 163.953 74.428 163.941 74.572C163.929 74.704 163.917 74.83 163.905 74.95H156.039V73.312H162.429L161.349 73.798C161.349 73.294 161.247 72.856 161.043 72.484C160.839 72.112 160.557 71.824 160.197 71.62C159.837 71.404 159.417 71.296 158.937 71.296C158.457 71.296 158.031 71.404 157.659 71.62C157.299 71.824 157.017 72.118 156.813 72.502C156.609 72.874 156.507 73.318 156.507 73.834V74.266C156.507 74.794 156.621 75.262 156.849 75.67C157.089 76.066 157.419 76.372 157.839 76.588C158.271 76.792 158.775 76.894 159.351 76.894C159.867 76.894 160.317 76.816 160.701 76.66C161.097 76.504 161.457 76.27 161.781 75.958L163.275 77.578C162.831 78.082 162.273 78.472 161.601 78.748C160.929 79.012 160.155 79.144 159.279 79.144ZM175.264 79.216C174.256 79.216 173.29 79.084 172.366 78.82C171.442 78.544 170.698 78.19 170.134 77.758L171.124 75.562C171.664 75.946 172.3 76.264 173.032 76.516C173.776 76.756 174.526 76.876 175.282 76.876C175.858 76.876 176.32 76.822 176.668 76.714C177.028 76.594 177.292 76.432 177.46 76.228C177.628 76.024 177.712 75.79 177.712 75.526C177.712 75.19 177.58 74.926 177.316 74.734C177.052 74.53 176.704 74.368 176.272 74.248C175.84 74.116 175.36 73.996 174.832 73.888C174.316 73.768 173.794 73.624 173.266 73.456C172.75 73.288 172.276 73.072 171.844 72.808C171.412 72.544 171.058 72.196 170.782 71.764C170.518 71.332 170.386 70.78 170.386 70.108C170.386 69.388 170.578 68.734 170.962 68.146C171.358 67.546 171.946 67.072 172.726 66.724C173.518 66.364 174.508 66.184 175.696 66.184C176.488 66.184 177.268 66.28 178.036 66.472C178.804 66.652 179.482 66.928 180.07 67.3L179.17 69.514C178.582 69.178 177.994 68.932 177.406 68.776C176.818 68.608 176.242 68.524 175.678 68.524C175.114 68.524 174.652 68.59 174.292 68.722C173.932 68.854 173.674 69.028 173.518 69.244C173.362 69.448 173.284 69.688 173.284 69.964C173.284 70.288 173.416 70.552 173.68 70.756C173.944 70.948 174.292 71.104 174.724 71.224C175.156 71.344 175.63 71.464 176.146 71.584C176.674 71.704 177.196 71.842 177.712 71.998C178.24 72.154 178.72 72.364 179.152 72.628C179.584 72.892 179.932 73.24 180.196 73.672C180.472 74.104 180.61 74.65 180.61 75.31C180.61 76.018 180.412 76.666 180.016 77.254C179.62 77.842 179.026 78.316 178.234 78.676C177.454 79.036 176.464 79.216 175.264 79.216ZM186.49 79.144C185.686 79.144 184.966 78.988 184.33 78.676C183.706 78.364 183.22 77.89 182.872 77.254C182.524 76.606 182.35 75.784 182.35 74.788V69.316H185.158V74.374C185.158 75.178 185.326 75.772 185.662 76.156C186.01 76.528 186.496 76.714 187.12 76.714C187.552 76.714 187.936 76.624 188.272 76.444C188.608 76.252 188.872 75.964 189.064 75.58C189.256 75.184 189.352 74.692 189.352 74.104V69.316H192.16V79H189.496V76.336L189.982 77.11C189.658 77.782 189.178 78.292 188.542 78.64C187.918 78.976 187.234 79.144 186.49 79.144ZM200.486 79.144C199.67 79.144 198.956 78.964 198.344 78.604C197.732 78.244 197.252 77.698 196.904 76.966C196.568 76.222 196.4 75.286 196.4 74.158C196.4 73.018 196.562 72.082 196.886 71.35C197.21 70.618 197.678 70.072 198.29 69.712C198.902 69.352 199.634 69.172 200.486 69.172C201.398 69.172 202.214 69.382 202.934 69.802C203.666 70.21 204.242 70.786 204.662 71.53C205.094 72.274 205.31 73.15 205.31 74.158C205.31 75.178 205.094 76.06 204.662 76.804C204.242 77.548 203.666 78.124 202.934 78.532C202.214 78.94 201.398 79.144 200.486 79.144ZM194.762 82.492V69.316H197.444V71.296L197.39 74.176L197.57 77.038V82.492H194.762ZM200 76.84C200.468 76.84 200.882 76.732 201.242 76.516C201.614 76.3 201.908 75.994 202.124 75.598C202.352 75.19 202.466 74.71 202.466 74.158C202.466 73.594 202.352 73.114 202.124 72.718C201.908 72.322 201.614 72.016 201.242 71.8C200.882 71.584 200.468 71.476 200 71.476C199.532 71.476 199.112 71.584 198.74 71.8C198.368 72.016 198.074 72.322 197.858 72.718C197.642 73.114 197.534 73.594 197.534 74.158C197.534 74.71 197.642 75.19 197.858 75.598C198.074 75.994 198.368 76.3 198.74 76.516C199.112 76.732 199.532 76.84 200 76.84ZM212.914 79.144C212.098 79.144 211.384 78.964 210.772 78.604C210.16 78.244 209.68 77.698 209.332 76.966C208.996 76.222 208.828 75.286 208.828 74.158C208.828 73.018 208.99 72.082 209.314 71.35C209.638 70.618 210.106 70.072 210.718 69.712C211.33 69.352 212.062 69.172 212.914 69.172C213.826 69.172 214.642 69.382 215.362 69.802C216.094 70.21 216.67 70.786 217.09 71.53C217.522 72.274 217.738 73.15 217.738 74.158C217.738 75.178 217.522 76.06 217.09 76.804C216.67 77.548 216.094 78.124 215.362 78.532C214.642 78.94 213.826 79.144 212.914 79.144ZM207.19 82.492V69.316H209.872V71.296L209.818 74.176L209.998 77.038V82.492H207.19ZM212.428 76.84C212.896 76.84 213.31 76.732 213.67 76.516C214.042 76.3 214.336 75.994 214.552 75.598C214.78 75.19 214.894 74.71 214.894 74.158C214.894 73.594 214.78 73.114 214.552 72.718C214.336 72.322 214.042 72.016 213.67 71.8C213.31 71.584 212.896 71.476 212.428 71.476C211.96 71.476 211.54 71.584 211.168 71.8C210.796 72.016 210.502 72.322 210.286 72.718C210.07 73.114 209.962 73.594 209.962 74.158C209.962 74.71 210.07 75.19 210.286 75.598C210.502 75.994 210.796 76.3 211.168 76.516C211.54 76.732 211.96 76.84 212.428 76.84ZM224.225 79.144C223.193 79.144 222.275 78.928 221.471 78.496C220.679 78.064 220.049 77.476 219.581 76.732C219.125 75.976 218.897 75.118 218.897 74.158C218.897 73.186 219.125 72.328 219.581 71.584C220.049 70.828 220.679 70.24 221.471 69.82C222.275 69.388 223.193 69.172 224.225 69.172C225.245 69.172 226.157 69.388 226.961 69.82C227.765 70.24 228.395 70.822 228.851 71.566C229.307 72.31 229.535 73.174 229.535 74.158C229.535 75.118 229.307 75.976 228.851 76.732C228.395 77.476 227.765 78.064 226.961 78.496C226.157 78.928 225.245 79.144 224.225 79.144ZM224.225 76.84C224.693 76.84 225.113 76.732 225.485 76.516C225.857 76.3 226.151 75.994 226.367 75.598C226.583 75.19 226.691 74.71 226.691 74.158C226.691 73.594 226.583 73.114 226.367 72.718C226.151 72.322 225.857 72.016 225.485 71.8C225.113 71.584 224.693 71.476 224.225 71.476C223.757 71.476 223.337 71.584 222.965 71.8C222.593 72.016 222.293 72.322 222.065 72.718C221.849 73.114 221.741 73.594 221.741 74.158C221.741 74.71 221.849 75.19 222.065 75.598C222.293 75.994 222.593 76.3 222.965 76.516C223.337 76.732 223.757 76.84 224.225 76.84ZM231.412 79V69.316H234.094V72.052L233.716 71.26C234.004 70.576 234.466 70.06 235.102 69.712C235.738 69.352 236.512 69.172 237.424 69.172V71.764C237.304 71.752 237.196 71.746 237.1 71.746C237.004 71.734 236.902 71.728 236.794 71.728C236.026 71.728 235.402 71.95 234.922 72.394C234.454 72.826 234.22 73.504 234.22 74.428V79H231.412ZM243.388 79.144C242.248 79.144 241.36 78.856 240.724 78.28C240.088 77.692 239.77 76.822 239.77 75.67V67.174H242.578V75.634C242.578 76.042 242.686 76.36 242.902 76.588C243.118 76.804 243.412 76.912 243.784 76.912C244.228 76.912 244.606 76.792 244.918 76.552L245.674 78.532C245.386 78.736 245.038 78.892 244.63 79C244.234 79.096 243.82 79.144 243.388 79.144ZM238.276 71.692V69.532H244.99V71.692H238.276Z" fill="#003C79"/>
<path d="M254.616 82.492C253.896 81.4 253.338 80.14 252.942 78.712C252.558 77.272 252.366 75.724 252.366 74.068C252.366 72.412 252.558 70.864 252.942 69.424C253.338 67.972 253.896 66.712 254.616 65.644H257.298C256.542 67 255.99 68.368 255.642 69.748C255.294 71.116 255.12 72.556 255.12 74.068C255.12 75.58 255.294 77.026 255.642 78.406C255.99 79.774 256.542 81.136 257.298 82.492H254.616ZM264.577 79.216C262.789 79.216 261.391 78.718 260.383 77.722C259.375 76.726 258.871 75.304 258.871 73.456V66.4H261.787V73.348C261.787 74.548 262.033 75.412 262.525 75.94C263.017 76.468 263.707 76.732 264.595 76.732C265.483 76.732 266.173 76.468 266.665 75.94C267.157 75.412 267.403 74.548 267.403 73.348V66.4H270.283V73.456C270.283 75.304 269.779 76.726 268.771 77.722C267.763 78.718 266.365 79.216 264.577 79.216ZM277.305 79.216C276.297 79.216 275.331 79.084 274.407 78.82C273.483 78.544 272.739 78.19 272.175 77.758L273.165 75.562C273.705 75.946 274.341 76.264 275.073 76.516C275.817 76.756 276.567 76.876 277.323 76.876C277.899 76.876 278.361 76.822 278.709 76.714C279.069 76.594 279.333 76.432 279.501 76.228C279.669 76.024 279.753 75.79 279.753 75.526C279.753 75.19 279.621 74.926 279.357 74.734C279.093 74.53 278.745 74.368 278.313 74.248C277.881 74.116 277.401 73.996 276.873 73.888C276.357 73.768 275.835 73.624 275.307 73.456C274.791 73.288 274.317 73.072 273.885 72.808C273.453 72.544 273.099 72.196 272.823 71.764C272.559 71.332 272.427 70.78 272.427 70.108C272.427 69.388 272.619 68.734 273.003 68.146C273.399 67.546 273.987 67.072 274.767 66.724C275.559 66.364 276.549 66.184 277.737 66.184C278.529 66.184 279.309 66.28 280.077 66.472C280.845 66.652 281.523 66.928 282.111 67.3L281.211 69.514C280.623 69.178 280.035 68.932 279.447 68.776C278.859 68.608 278.283 68.524 277.719 68.524C277.155 68.524 276.693 68.59 276.333 68.722C275.973 68.854 275.715 69.028 275.559 69.244C275.403 69.448 275.325 69.688 275.325 69.964C275.325 70.288 275.457 70.552 275.721 70.756C275.985 70.948 276.333 71.104 276.765 71.224C277.197 71.344 277.671 71.464 278.187 71.584C278.715 71.704 279.237 71.842 279.753 71.998C280.281 72.154 280.761 72.364 281.193 72.628C281.625 72.892 281.973 73.24 282.237 73.672C282.513 74.104 282.651 74.65 282.651 75.31C282.651 76.018 282.453 76.666 282.057 77.254C281.661 77.842 281.067 78.316 280.275 78.676C279.495 79.036 278.505 79.216 277.305 79.216ZM295.861 79.216C294.865 79.216 293.941 79.054 293.089 78.73C292.249 78.406 291.517 77.95 290.893 77.362C290.281 76.774 289.801 76.084 289.453 75.292C289.117 74.5 288.949 73.636 288.949 72.7C288.949 71.764 289.117 70.9 289.453 70.108C289.801 69.316 290.287 68.626 290.911 68.038C291.535 67.45 292.267 66.994 293.107 66.67C293.947 66.346 294.859 66.184 295.843 66.184C296.839 66.184 297.751 66.346 298.579 66.67C299.419 66.994 300.145 67.45 300.757 68.038C301.381 68.626 301.867 69.316 302.215 70.108C302.563 70.888 302.737 71.752 302.737 72.7C302.737 73.636 302.563 74.506 302.215 75.31C301.867 76.102 301.381 76.792 300.757 77.38C300.145 77.956 299.419 78.406 298.579 78.73C297.751 79.054 296.845 79.216 295.861 79.216ZM295.843 76.732C296.407 76.732 296.923 76.636 297.391 76.444C297.871 76.252 298.291 75.976 298.651 75.616C299.011 75.256 299.287 74.83 299.479 74.338C299.683 73.846 299.785 73.3 299.785 72.7C299.785 72.1 299.683 71.554 299.479 71.062C299.287 70.57 299.011 70.144 298.651 69.784C298.303 69.424 297.889 69.148 297.409 68.956C296.929 68.764 296.407 68.668 295.843 68.668C295.279 68.668 294.757 68.764 294.277 68.956C293.809 69.148 293.395 69.424 293.035 69.784C292.675 70.144 292.393 70.57 292.189 71.062C291.997 71.554 291.901 72.1 291.901 72.7C291.901 73.288 291.997 73.834 292.189 74.338C292.393 74.83 292.669 75.256 293.017 75.616C293.377 75.976 293.797 76.252 294.277 76.444C294.757 76.636 295.279 76.732 295.843 76.732ZM310.617 69.172C311.385 69.172 312.069 69.328 312.669 69.64C313.281 69.94 313.761 70.408 314.109 71.044C314.457 71.668 314.631 72.472 314.631 73.456V79H311.823V73.888C311.823 73.108 311.649 72.532 311.301 72.16C310.965 71.788 310.485 71.602 309.861 71.602C309.417 71.602 309.015 71.698 308.655 71.89C308.307 72.07 308.031 72.352 307.827 72.736C307.635 73.12 307.539 73.612 307.539 74.212V79H304.731V69.316H307.413V71.998L306.909 71.188C307.257 70.54 307.755 70.042 308.403 69.694C309.051 69.346 309.789 69.172 310.617 69.172ZM317.176 79V65.644H319.984V79H317.176ZM323.814 82.636C323.31 82.636 322.812 82.558 322.32 82.402C321.828 82.246 321.426 82.03 321.114 81.754L322.14 79.756C322.356 79.948 322.602 80.098 322.878 80.206C323.166 80.314 323.448 80.368 323.724 80.368C324.12 80.368 324.432 80.272 324.66 80.08C324.9 79.9 325.116 79.594 325.308 79.162L325.812 77.974L326.028 77.668L329.502 69.316H332.202L327.828 79.594C327.516 80.374 327.156 80.986 326.748 81.43C326.352 81.874 325.908 82.186 325.416 82.366C324.936 82.546 324.402 82.636 323.814 82.636ZM325.47 79.378L321.15 69.316H324.048L327.396 77.416L325.47 79.378ZM334.914 82.492H332.232C333.012 81.136 333.57 79.774 333.906 78.406C334.254 77.026 334.428 75.58 334.428 74.068C334.428 72.556 334.254 71.116 333.906 69.748C333.57 68.368 333.012 67 332.232 65.644H334.914C335.658 66.712 336.222 67.972 336.606 69.424C336.99 70.864 337.182 72.412 337.182 74.068C337.182 75.724 336.99 77.272 336.606 78.712C336.222 80.14 335.658 81.4 334.914 82.492Z" fill="#EF4034"/>
</svg>
