<svg  viewBox="0 0 48 48" fill="none" xmlns="http://www.w3.org/2000/svg">
<path d="M29 43V38.4L31.6 38.9C34.5 39.5 37.2 37.4 37.4 34.5L38 28L40.9 26.8C41.9 26.4 42.3 25.2 41.7 24.2L38 18C37.4 10.4 33.1 3 22 3C10.6 3 5 11.4 5 20C5 23.7 6.3 26.9 8.3 29.6C10.1 32.1 11 35.1 11 38.1V42.9H29V43Z" fill="#FFB74D"/>
<path d="M29 43V38.4L22 37V43H29Z" fill="#FF9800"/>
<path d="M33.5 23C34.3284 23 35 22.3284 35 21.5C35 20.6716 34.3284 20 33.5 20C32.6716 20 32 20.6716 32 21.5C32 22.3284 32.6716 23 33.5 23Z" fill="#784719"/>
<path d="M21.4 3C12.3 3 5 10.3 5 19.4C5 30.5 11 30.8 11 38L13.6 37.1C15.7 36.4 17.5 34.8 18.3 32.7L21.1 25.9L27 23V17C27 17 34 13.2 34 6.7C31 4.2 25.7 3 21.4 3Z" fill="#EF4034"/>
<path d="M21 2.1C20.4 2.1 20 2.5 20 3.1V17C20 17.6 20.4 18 21 18C21.6 18 22 17.6 22 17V3.1C22 2.5 21.6 2.1 21 2.1ZM36.9 31.9C29 31.9 26.6 27 26.5 26.8C26.3 26.3 25.7 26.1 25.2 26.3C24.7 26.5 24.5 27.1 24.7 27.6C24.8 27.9 27.7 33.9 36.9 33.9C37.5 33.9 37.9 33.5 37.9 32.9C37.9 32.3 37.4 31.9 36.9 31.9Z" fill="#003C79"/>
<path d="M37 35C38.1046 35 39 34.1046 39 33C39 31.8954 38.1046 31 37 31C35.8954 31 35 31.8954 35 33C35 34.1046 35.8954 35 37 35Z" fill="#37474F"/>
<path d="M21 30C24.866 30 28 26.866 28 23C28 19.134 24.866 16 21 16C17.134 16 14 19.134 14 23C14 26.866 17.134 30 21 30Z" fill="#003C79"/>
<path d="M21 27C23.2091 27 25 25.2091 25 23C25 20.7909 23.2091 19 21 19C18.7909 19 17 20.7909 17 23C17 25.2091 18.7909 27 21 27Z" fill="#EF4034"/>
</svg>
