<svg width="20" height="21" viewBox="0 0 20 21" fill="none" xmlns="http://www.w3.org/2000/svg">
<path d="M8.21 18H2V8H16V12.38L18 10.38V4C18 2.9 17.1 2 16 2H15V0H13V2H5V0H3V2H2C0.89 2 0.00999999 2.9 0.00999999 4L0 18C0 18.5304 0.210714 19.0391 0.585786 19.4142C0.960859 19.7893 1.46957 20 2 20H10.21L8.21 18ZM2 4H16V6H2V4ZM13.54 20.5L10 16.96L11.41 15.55L13.53 17.67L17.77 13.43L19.18 14.84L13.54 20.5ZM7.41 12L9 13.59L7.59 15L6 13.41L4.41 15L3 13.59L4.59 12L3 10.41L4.41 9L6 10.59L7.59 9L9 10.41L7.41 12Z" fill="#FF1000"/>
</svg>
