<svg width="32" height="32" viewBox="0 0 42 42" fill="none" xmlns="http://www.w3.org/2000/svg">
<g clip-path="url(#clip0_1_36)">
<path d="M21 2.625C9.39422 2.625 2.18026e-10 12.0173 2.18026e-10 23.625V27.5625C-6.28178e-06 28.05 0.13574 28.5279 0.392029 28.9426C0.648317 29.3572 1.01502 29.6924 1.45105 29.9104L2.63091 30.5003C2.79587 35.4295 6.84313 39.375 11.8125 39.375H13.7812C14.8686 39.375 15.75 38.4936 15.75 37.4062V22.9688C15.75 21.8814 14.8686 21 13.7812 21H11.8125C9.24148 21 6.91761 22.0565 5.25 23.7585V23.625C5.25 14.9404 12.3154 7.875 21 7.875C29.6846 7.875 36.75 14.9404 36.75 23.625V23.7585C35.0824 22.0565 32.7585 21 30.1875 21H28.2188C27.1314 21 26.25 21.8814 26.25 22.9688V37.4062C26.25 38.4936 27.1314 39.375 28.2188 39.375H30.1875C35.1569 39.375 39.2041 35.4295 39.3691 30.5003L40.5489 29.9104C40.9849 29.6924 41.3516 29.3573 41.6079 28.9426C41.8642 28.5279 42 28.05 42 27.5625V23.625C42 12.0193 32.6077 2.625 21 2.625Z" fill="white"/>
</g>
<defs>
<clipPath id="clip0_1_36">
<rect width="42" height="42" fill="white"/>
</clipPath>
</defs>
</svg>
