<svg viewBox="0 0 245 39" fill="none" xmlns="http://www.w3.org/2000/svg">
<g clip-path="url(#clip0_1_58)">
<path d="M243.614 34.8685H244.374L244.094 34.1654L231.801 3.39221L231.671 3.06894H231.321H224.581H224.066V3.48359L211.598 34.1626L211.311 34.8685H212.075H218.61H218.964L219.09 34.5372L221.881 27.192H233.335L236.141 34.538L236.266 34.8685H236.621H243.614ZM224.179 21.0397L227.617 12.1102L231.047 21.0397H224.179Z" fill="#FEFEFE"/>
<path d="M205.321 3.71338V3.20023H204.806H177.972H177.457V3.71338V9.03487V9.54803H177.972H187.517V34.3574V34.8705H188.032H194.746H195.261V34.3574V9.54803H204.806H205.321V9.03487V3.71338Z" fill="#FEFEFE"/>
<path d="M169.26 29.0294V28.5162H168.745H156.387V3.71439V3.20123H155.873H149.167H148.652V3.71439V34.3555V34.8687H149.167H168.745H169.26V34.3555V29.0294Z" fill="#FEFEFE"/>
<path d="M130.699 28.518H116.395V21.5853H128.577H129.092V21.0721V15.7522V15.2391H128.577H116.395V9.54779H130.233H130.747V9.03463V3.71314V3.19998H130.233H109.197H108.682V3.71314V34.3557V34.8689H109.197H130.699H131.213V34.3557V29.0312V28.518H130.699Z" fill="#FEFEFE"/>
<path d="M64.7877 34.3553V34.8685H65.3024H75.8668C81.3799 34.8685 85.8474 33.4054 88.9432 30.6641C92.0467 27.916 93.7117 23.9362 93.7117 19.0326C93.7117 14.1292 92.0467 10.1499 88.943 7.40256C85.8474 4.66216 81.3799 3.19974 75.8668 3.19974H65.3024H64.7877V3.7129V34.3553ZM72.4941 9.54756H75.8592C79.3016 9.54756 81.7952 10.4171 83.4289 11.989C85.0593 13.5581 85.9135 15.905 85.9135 19.0327C85.9135 22.158 85.0593 24.5049 83.4287 26.0746C81.7952 27.6471 79.3014 28.5176 75.8592 28.5176H72.4941V9.54756Z" fill="#FEFEFE"/>
<path d="M23.7693 27.852L23.5879 27.6865L23.4877 27.73L22.9738 27.5073V27.9525L-0.205109 37.9932L1.62423e-06 38.977H23.4885H35.7408H46.9753L47.1804 37.9932L23.7693 27.852Z" fill="#FEFEFE"/>
<path d="M1.95026 34.8169L23.4323 24.165L45.0207 34.8176L46.662 35.6273L45.6843 34.0835L23.9777 -0.187895L23.78 -1.42434L23.4873 -0.962169L22.9732 -1.77374V-0.150755L1.28588 34.0835L0.304108 35.6333L1.95026 34.8169Z" fill="#FEFEFE"/>
</g>
<defs>
<clipPath id="clip0_1_58">
<rect width="245" height="39" fill="white"/>
</clipPath>
</defs>
</svg>
